<svg xmlns="http://www.w3.org/2000/svg" viewBox="0 0 474.46 78.87">
	<g>
		<g>
			<path d="M44.43,46.93H58.22V71a49,49,0,0,1-25.49,7.85C14.05,78.87,0,65.44,0,47.63S14.4,16.55,33.78,16.55c9.16,0,18.85,3.49,25.13,9.08L49.84,36.8a24.76,24.76,0,0,0-16.15-6.72c-9.86,0-17.28,7.59-17.28,17.55s7.5,17.63,17.45,17.63a25,25,0,0,0,10.57-2.88Z" fill="#fff"/>
			<path d="M97.73,30.34V44.57c-8.64-.87-14.4,3-15.19,9.52V78.18H67V31H82.54v7.86A17,17,0,0,1,97.73,30.34Z" fill="#fff"/>
			<path d="M149.13,58.71H116.31C117.79,64,121.72,67,127,67a15.69,15.69,0,0,0,11.09-4.79l8.11,8.11c-4.79,5.42-11.87,8.38-20.59,8.38-15.45,0-25-9.52-25-23.92,0-14.66,9.86-24.34,24.62-24.34C141.79,30.44,150.17,41.51,149.13,58.71Zm-15-8.29c0-5.41-3.49-9.07-8.73-9.07-5.06,0-8.38,3.66-9.42,9.07Z" fill="#fff"/>
			<path d="M201.74,58.71H168.92C170.4,64,174.33,67,179.66,67a15.68,15.68,0,0,0,11.08-4.79l8.12,8.11c-4.8,5.42-11.88,8.38-20.6,8.38-15.45,0-25-9.52-25-23.92,0-14.66,9.87-24.34,24.62-24.34C194.41,30.44,202.78,41.51,201.74,58.71Zm-15-8.29c0-5.41-3.5-9.07-8.74-9.07-5.06,0-8.38,3.66-9.42,9.07Z" fill="#fff"/>
			<path d="M228.77,60.37l-4.8,5V78.18H208.43V13.41H224V46.93l15.1-16H256.7L239.42,49.19l17.63,29H238.72Z" fill="#fff"/>
			<path d="M261.87,33.22V20.14h15.45V33.22h12.22v10.3H277.32V61.33c0,3.5,1.57,5.06,4.28,5a16.17,16.17,0,0,0,5.85-1.58l3,11a26,26,0,0,1-12.74,3.13c-9.16.1-15.8-5.32-15.8-15.1V33.22Z" fill="#fff"/>
			<path d="M342.16,58.71H309.34C310.83,64,314.75,67,320.08,67a15.68,15.68,0,0,0,11.08-4.79l8.12,8.11c-4.8,5.42-11.87,8.38-20.6,8.38-15.45,0-25-9.52-25-23.92,0-14.66,9.86-24.34,24.61-24.34C334.83,30.44,343.21,41.51,342.16,58.71Zm-15-8.29c0-5.41-3.49-9.07-8.73-9.07-5.06,0-8.38,3.66-9.43,9.07Z" fill="#fff"/>
			<path d="M371.38,43.26c-5.59,0-9.43,4.63-9.43,11.44s3.84,11.43,9.43,11.43c4.1,0,7.33-1.66,9.25-5.32l11.43,6.54c-3.75,7.25-11.43,11.35-21.47,11.35-14.57,0-24.26-9.52-24.26-23.92,0-14.66,9.77-24.34,24.44-24.34,9.51,0,17,4.1,21.12,11.17l-11.26,6.54A10.81,10.81,0,0,0,371.38,43.26Z" fill="#fff"/>
			<path d="M446.25,48.41V78.18H430.72V52.87c0-5.33-3.06-8.64-8-8.64-5.76.08-9.26,4.45-9.26,10.64V78.18H397.9V13.41h15.53V38.64c3.32-5.42,8.73-8.3,15.63-8.3C439.44,30.34,446.25,37.33,446.25,48.41Z" fill="#fff"/>
			<path d="M457.29,0V3.07H453V14.24H449.3V3.07h-4.22V0Z" fill="#fff"/>
			<path d="M462.85,0l3.78,8.31L470.4,0h4.06V14.24h-3.29l0-9-3.31,7.59h-2.43L462.1,5.22v9h-3.31V0Z" fill="#fff"/>
		</g>
	</g>
</svg>