<svg xmlns="http://www.w3.org/2000/svg" xmlns:xlink="http://www.w3.org/1999/xlink" viewBox="0 0 1147.41 511.58"><defs><style>.cls-1{fill:url(#linear-gradient);}.cls-2{fill:url(#linear-gradient-2);}.cls-3{fill:url(#linear-gradient-3);}.cls-4{fill:#fff;}</style><linearGradient id="linear-gradient" y1="127.58" x2="240" y2="127.58" gradientUnits="userSpaceOnUse"><stop offset="0" stop-color="#3a7bd5"/><stop offset="1" stop-color="#00d2ff"/></linearGradient><linearGradient id="linear-gradient-2" y1="391.58" y2="391.58" xlink:href="#linear-gradient"/><linearGradient id="linear-gradient-3" y1="247.58" y2="247.58" xlink:href="#linear-gradient"/></defs><title>Asset 29</title><g id="Layer_2" data-name="Layer 2"><g id="Layer_1-2" data-name="Layer 1"><path class="cls-1" d="M120,19.58a108,108,0,0,1,76.37,184.37A108,108,0,0,1,43.63,51.21,107.29,107.29,0,0,1,120,19.58m0-12a120,120,0,1,0,120,120,120,120,0,0,0-120-120Z"/><path class="cls-2" d="M120,283.58a108,108,0,1,1-76.37,31.63A107.29,107.29,0,0,1,120,283.58m0-12a120,120,0,1,0,120,120,120,120,0,0,0-120-120Z"/><path class="cls-3" d="M120,139.58a108,108,0,1,1-76.37,31.63A107.29,107.29,0,0,1,120,139.58m0-12a120,120,0,1,0,120,120,120,120,0,0,0-120-120Z"/><path class="cls-4" d="M436.14,71h21.64v66.23h-18.5V125.43c-10.17,8-22.75,12.95-35.15,12.95-37.37,0-66-28.67-66-65.86S368.43,7,407.84,7c18.68,0,37.92,7.21,51.06,18.5L444.65,43.66A55.15,55.15,0,0,0,408,29c-25,0-44.58,19.05-44.58,43.47,0,24.6,19.05,43.66,43.29,43.66a39.61,39.61,0,0,0,29.41-13.32Z"/><path class="cls-4" d="M547.14,37.37V60.68c-20.9-1.29-33.67,10.92-33.67,28.86v47.73h-24v-99h24V57.35C520.13,44.4,531.79,37.55,547.14,37.37Z"/><path class="cls-4" d="M640,105.08,654.07,118c-11.29,13.51-26.08,20.17-43.47,20.17-30.89,0-52-20.17-52-50.32,0-29.41,19.42-50.13,50.13-50.32,27.56-.37,46.06,16.65,47.36,44.21l-70.48,20c4.63,10.73,14.25,17.21,26.64,17.21C622.62,119,632.24,114.14,640,105.08ZM582.85,85.65l49.76-14.25C628.54,61,621,56.42,610,56.42,593.58,56.42,583.22,66.6,582.85,85.65Z"/><path class="cls-4" d="M751.75,105.08,765.81,118c-11.29,13.51-26.08,20.17-43.47,20.17-30.89,0-52-20.17-52-50.32,0-29.41,19.42-50.13,50.13-50.32,27.56-.37,46.06,16.65,47.36,44.21l-70.48,20C702,112.48,711.61,119,724,119,734.36,119,744,114.14,751.75,105.08ZM694.59,85.65l49.76-14.25c-4.07-10.36-11.66-15-22.57-15C705.32,56.42,695,66.6,694.59,85.65Z"/><path class="cls-4" d="M831.3,94l-15.17,15.91v27.38h-24V0h24V79.55l40.7-41.07h27.75L848,76.59l38.85,60.68H858.13Z"/><path class="cls-4" d="M390.11,208.23c-11.66,0-19.24,4.26-19.24,12.21,0,26.27,69.56,12,69.37,58.46,0,24.23-21.09,38.29-49.58,38.29a84.11,84.11,0,0,1-54.76-20.72l10.36-20.9c13.32,11.84,30.89,19.05,44.77,19.05s22.2-5.18,22.2-14.25c0-27-69.56-11.65-69.56-57.72,0-22.57,19.42-37,48.47-37,17.2,0,34.41,5.55,46.8,13.69l-10,21.46C415.09,212.48,400.1,208.23,390.11,208.23Z"/><path class="cls-4" d="M518.13,310.16c-7.77,4.62-16.46,7.21-24.42,7.21-16.65,0-29.6-11.1-29.6-32.56V194.17h24v27.2h28.3v17.57h-28.3v41.63c0,10.73,3.89,15.54,10.54,15.54,3.89,0,8.51-1.48,13.88-4.07Z"/><path class="cls-4" d="M634.86,217.29v99h-24V300.54c-7,10.73-18.31,16.83-33.11,16.83-28.3,0-47.17-20.72-47.17-50.87,0-29.78,18.5-49.95,46.25-50.13,15.17-.19,26.82,5.92,34,16.83V217.29Zm-24,53.28v-7c-1.48-15.91-12.39-26.64-27.93-26.64-16.46,0-27.94,12.58-28.12,30.16.18,17.76,11.47,30.15,28.12,30.15C598.42,297.21,609.33,286.48,610.81,270.57Z"/><path class="cls-4" d="M726.07,216.37v23.31c-20.91-1.29-33.67,10.92-33.67,28.86v47.73h-24v-99h24v19.05C699.06,223.4,710.71,216.55,726.07,216.37Z"/><path class="cls-4" d="M798.22,310.16c-7.77,4.62-16.46,7.21-24.42,7.21-16.65,0-29.6-11.1-29.6-32.56V194.17h24v27.2h28.3v17.57h-28.3v41.63c0,10.73,3.88,15.54,10.54,15.54,3.88,0,8.51-1.48,13.87-4.07Z"/><path class="cls-4" d="M912,217.29v99H887.75V298c-6.84,13.13-18.68,19.24-34.41,19.24-22.2,0-35.89-14.61-35.89-37.92v-62h24.23v54.94c0,13.88,8,22.2,21.28,22.2,15.54-.18,24.79-12.39,24.79-28.3V217.29Z"/><path class="cls-4" d="M1050.74,267.24c0,29.78-18.31,49.95-46.43,49.95-15,0-26.45-6.1-33.67-17v52h-24V217.29h24v16.28c7-10.91,18.5-17,33.3-17C1031.87,216.55,1050.74,236.9,1050.74,267.24Zm-24.42-.74c0-17.39-11.47-29.78-27.75-29.78-16.46,0-27.93,12.39-27.93,29.78,0,17.76,11.47,30,27.93,30C1014.85,296.47,1026.32,284.08,1026.32,266.5Z"/><path class="cls-4" d="M457.55,365.77v129.5H432.76V474c-9.25,13.32-24.42,21.09-43.29,21.27-26.27,0-45-19.05-45-47.36V365.77h25.16V442c0,17.39,11.84,29.42,28.86,29.42,20.16-.37,34.22-15.91,34.22-35.89V365.77Z"/><path class="cls-4" d="M588.35,433.48v61.79H564.11V440.51c0-13.87-8.32-22.38-22-22.38-16.28.18-25.9,12.21-25.9,28.49v48.65h-24v-99h24v18.5c7-13.13,19.42-19.24,35.52-19.42C574.47,395.37,588.35,410,588.35,433.48Z"/><path class="cls-4" d="M644,368c0,7.77-5.37,13.32-13,13.32s-13-5.55-13-13.32,5.37-13.32,13-13.32S644,360.22,644,368Zm-.93,28.3v99h-24v-99Z"/><path class="cls-4" d="M686.58,396.29l25.9,75.29,25.34-75.29h24.24l-37.74,99H699.53l-38.11-98.79Z"/><path class="cls-4" d="M848.45,463.08,862.51,476c-11.29,13.5-26.08,20.17-43.47,20.17-30.89,0-52-20.17-52-50.32,0-29.41,19.42-50.13,50.13-50.32,27.56-.37,46.06,16.65,47.36,44.21l-70.48,20C798.69,470.48,808.31,477,820.7,477,831.06,477,840.68,472.14,848.45,463.08Zm-57.16-19.42L841,429.41c-4.07-10.36-11.66-15-22.57-15C802,414.42,791.66,424.6,791.29,443.65Z"/><path class="cls-4" d="M945.58,395.37v23.31c-20.91-1.29-33.67,10.92-33.67,28.86v47.73h-24v-99h24v19.05C918.57,402.4,930.22,395.55,945.58,395.37Z"/><path class="cls-4" d="M995.71,414.05c-7.77,0-13.32,2.59-13.32,8.69,0,16.65,52.35,8,52.35,43.47,0,20.17-17.95,30-39,30-15,0-30.52-4.81-40.88-13.87l8.32-16.83c9.07,7.77,22.75,12.21,33.49,12.21,8.32,0,14.61-2.77,14.61-9.25,0-18.32-51.61-8.33-51.43-43.47,0-20.35,17.39-29.79,37.37-29.79,13,0,26.45,3.88,36.26,10.54l-8.7,17.39C1015.13,417.38,1004.22,414.05,995.71,414.05Z"/><path class="cls-4" d="M1131.31,463.08,1145.37,476c-11.29,13.5-26.08,20.17-43.47,20.17-30.89,0-52-20.17-52-50.32,0-29.41,19.42-50.13,50.13-50.32,27.56-.37,46.06,16.65,47.36,44.21l-70.48,20c4.63,10.73,14.25,17.21,26.64,17.21C1113.92,477,1123.54,472.14,1131.31,463.08Zm-57.17-19.42,49.76-14.25c-4.07-10.36-11.66-15-22.57-15C1084.88,414.42,1074.52,424.6,1074.15,443.65Z"/></g></g></svg>