<svg xmlns="http://www.w3.org/2000/svg" xmlns:xlink="http://www.w3.org/1999/xlink" viewBox="0 0 1155.73 568.9"><defs><style>.cls-1{fill:url(#linear-gradient);}.cls-2{fill:url(#linear-gradient-2);}.cls-3{fill:url(#linear-gradient-3);}.cls-4{font-size:185px;fill:#fff;font-family:MontserratAlternates-Medium, Montserrat Alternates;letter-spacing:0.02em;}.cls-5{letter-spacing:0.02em;}.cls-6{letter-spacing:0.02em;}.cls-7{letter-spacing:0em;}</style><linearGradient id="linear-gradient" y1="147.56" x2="240" y2="147.56" gradientUnits="userSpaceOnUse"><stop offset="0" stop-color="#3a7bd5"/><stop offset="1" stop-color="#00d2ff"/></linearGradient><linearGradient id="linear-gradient-2" y1="411.56" y2="411.56" xlink:href="#linear-gradient"/><linearGradient id="linear-gradient-3" y1="267.56" y2="267.56" xlink:href="#linear-gradient"/></defs><title>Asset 26</title><g id="Layer_2" data-name="Layer 2"><g id="Layer_1-2" data-name="Layer 1"><path class="cls-1" d="M120,39.56A108,108,0,1,1,43.63,71.19,107.29,107.29,0,0,1,120,39.56m0-12a120,120,0,1,0,120,120,120,120,0,0,0-120-120Z"/><path class="cls-2" d="M120,303.56a108,108,0,1,1-76.37,31.63A107.29,107.29,0,0,1,120,303.56m0-12a120,120,0,1,0,120,120,120,120,0,0,0-120-120Z"/><path class="cls-3" d="M120,159.56a108,108,0,1,1-76.37,31.63A107.29,107.29,0,0,1,120,159.56m0-12a120,120,0,1,0,120,120,120,120,0,0,0-120-120Z"/><text class="cls-4" transform="translate(332.36 157.25)">Greek<tspan x="-0.71" y="179">S</tspan><tspan class="cls-5" x="119.17" y="179">t</tspan><tspan class="cls-6" x="192.25" y="179">artup </tspan><tspan x="-0.97" y="358">Uni</tspan><tspan class="cls-7" x="329.24" y="358">v</tspan><tspan x="428.77" y="358">erse</tspan></text></g></g></svg>